# xmcd
#
# Track frame offsets:
#	150
#	6211
#	19487
#	35482
#	44933
#	61770
#	87707
#	105010
#	127629
#	143359
#	175690
#	191810
#	227707
#
# Disc length: 3235 seconds
#
# Revision: 1
# Processed by: cddbd v1.5.1PL0 Copyright (c) Steve Scherf et al.
# Submitted via: audiograbber 1.82.01
#
DISCID=a30ca10d
DTITLE=Stevie Ray Vaughan - Austin City Limits - The Outtakes - As Aired on PBS
DTITLE=09-27-03
DYEAR=1900
DGENRE=
TTITLE0=Stevie Ray Vaughan - PBS Intro
TTITLE1=Stevie Ray Vaughan - Love Struck Baby
TTITLE2=Stevie Ray Vaughan - Rude Mood
TTITLE3=Stevie Ray Vaughan - Interview Layton and Shannon
TTITLE4=Stevie Ray Vaughan - May I Have A Talk With You
TTITLE5=Stevie Ray Vaughan - Mary Had A Little Lamb
TTITLE6=Stevie Ray Vaughan - Look At Little Sister
TTITLE7=Stevie Ray Vaughan - Superstition
TTITLE8=Stevie Ray Vaughan - Instrumental Jam with WC Clark
TTITLE9=Stevie Ray Vaughan - Couldn't Stand The Weather
TTITLE10=Stevie Ray Vaughan - Music Snatching Babble
TTITLE11=Stevie Ray Vaughan - Voodoo Chile
TTITLE12=Stevie Ray Vaughan - More Music Snatching Babble
EXTD=
EXTT0=
EXTT1=
EXTT2=
EXTT3=
EXTT4=
EXTT5=
EXTT6=
EXTT7=
EXTT8=
EXTT9=
EXTT10=
EXTT11=
EXTT12=
PLAYORDER=
